<svg xmlns="http://www.w3.org/2000/svg" width="50" height="46" viewBox="0 0 50 46">
    <g fill="none" fill-rule="evenodd">
        <g fill="#FFF" fill-rule="nonzero">
            <g>
                <g>
                    <path d="M0 46h9.09V18.4H0V46zm50-25.3c0-2.541-2.034-4.6-4.545-4.6H31.102l2.17-10.511c.046-.23.08-.472.08-.725 0-.954-.386-1.817-1-2.438L29.932 0 14.966 15.146c-.818.839-1.33 1.989-1.33 3.254v23c0 2.541 2.034 4.6 4.546 4.6h20.454c1.887 0 3.5-1.161 4.182-2.806l6.852-16.215c.205-.529.33-1.092.33-1.679v-4.405l-.023-.023L50 20.7z" transform="translate(-775 -240) translate(741 204) translate(34 36)"/>
                </g>
            </g>
        </g>
    </g>
</svg>
